<svg width="980" height="551" xmlns="http://www.w3.org/2000/svg" xmlns:xlink="http://www.w3.org/1999/xlink">
<path fill="#ff595e" d="M 434.65 395.31 Q 434.65 395.31 436.53 394.89 438.41 394.47 439.82 394.74 441.22 395.02 443.60 395.35 445.97 395.68 447.13 396.10 448.30 396.51 449.93 396.68 451.56 396.86 452.71 396.90 453.86 396.94 455.06 396.94 456.26 396.95 458.10 397.29 459.94 397.64 460.86 398.14 461.77 398.63 463.12 398.69 464.47 398.75 466.29 399.10 468.10 399.45 469.47 399.55 470.83 399.65 472.51 399.66 474.20 399.67 475.99 399.67 477.78 399.67 479.21 399.68 480.63 399.68 482.26 399.31 483.90 398.95 485.68 398.51 487.47 398.08 488.74 397.99 490.00 397.90 491.80 397.52 493.61 397.14 494.72 396.85 495.84 396.56 497.34 396.36 498.85 396.16 500.07 395.75 501.29 395.34 502.49 395.09 503.69 394.83 505.00 394.57 506.32 394.32 507.47 393.92 508.63 393.52 510.32 393.08 512.01 392.63 513.04 392.66 514.06 392.69 515.00 392.20 515.94 391.71 517.09 391.63 518.24 391.54 519.01 391.53 519.78 391.51 520.02 391.54 520.26 391.56 520.49 391.64 520.72 391.72 520.92 391.86 521.12 391.99 521.28 392.17 521.44 392.34 521.56 392.56 521.68 392.77 521.74 393.00 521.80 393.23 521.81 393.47 521.81 393.72 521.76 393.95 521.70 394.19 521.60 394.40 521.49 394.62 521.33 394.80 521.17 394.98 520.98 395.12 520.78 395.26 520.56 395.35 520.34 395.44 520.10 395.48 519.86 395.51 518.86 394.90 517.85 394.29 517.13 393.55 516.41 392.81 515.16 391.56 513.91 390.31 512.65 389.41 511.38 388.50 510.55 387.91 509.71 387.31 508.82 386.55 507.93 385.79 506.52 384.88 505.10 383.97 504.24 383.37 503.38 382.77 502.44 381.95 501.50 381.14 501.40 380.91 501.30 380.69 501.26 380.46 501.22 380.22 501.24 379.98 501.25 379.74 501.33 379.51 501.40 379.28 501.53 379.07 501.65 378.87 501.82 378.70 502.00 378.53 502.20 378.41 502.41 378.28 502.64 378.21 502.87 378.14 503.11 378.13 503.35 378.12 503.59 378.16 503.83 378.21 504.05 378.31 504.26 378.41 504.45 378.56 504.64 378.71 504.79 378.90 504.94 379.09 504.03 378.65 503.12 378.20 504.24 378.41 505.36 378.62 506.27 379.11 507.18 379.60 508.52 380.39 509.86 381.19 511.44 381.74 513.01 382.29 514.08 382.67 515.14 383.04 516.35 383.81 517.55 384.57 519.31 385.59 521.07 386.61 521.91 387.73 522.75 388.85 523.37 390.23 523.99 391.60 524.50 393.27 525.02 394.93 523.89 396.03 522.77 397.12 521.72 397.21 520.66 397.30 519.05 397.30 517.45 397.31 515.92 398.38 514.39 399.46 513.22 400.22 512.05 400.98 510.83 401.67 509.61 402.36 508.73 403.17 507.85 403.98 506.80 405.34 505.75 406.71 504.42 408.79 503.10 410.86 503.10 410.86 503.09 410.86 503.09 410.86 503.08 410.85 502.51 408.33 501.94 405.80 502.51 404.75 503.08 403.69 504.11 402.36 505.14 401.03 505.96 400.29 506.78 399.55 507.75 399.03 508.71 398.52 510.03 397.65 511.35 396.79 512.40 396.18 513.45 395.56 514.42 394.80 515.39 394.04 516.34 393.69 517.29 393.34 518.83 393.32 520.36 393.29 519.99 392.31 519.62 391.33 518.79 390.15 517.96 388.98 516.62 388.47 515.28 387.97 514.42 387.34 513.55 386.71 512.12 386.05 510.69 385.38 509.31 385.03 507.94 384.69 506.92 384.03 505.90 383.38 504.83 382.58 503.76 381.78 502.63 381.46 501.50 381.14 501.40 380.91 501.30 380.69 501.26 380.46 501.22 380.22 501.24 379.98 501.25 379.74 501.33 379.51 501.40 379.28 501.53 379.07 501.65 378.87 501.82 378.70 502.00 378.53 502.20 378.41 502.41 378.28 502.64 378.21 502.87 378.14 503.11 378.13 503.35 378.12 503.59 378.16 503.83 378.21 504.05 378.31 504.26 378.41 504.45 378.56 504.64 378.71 504.79 378.90 504.94 379.09 505.10 379.25 505.26 379.40 506.38 380.09 507.50 380.77 508.83 381.62 510.16 382.47 511.55 383.49 512.93 384.52 513.92 385.37 514.91 386.22 516.38 387.41 517.85 388.60 518.82 390.05 519.78 391.51 520.02 391.54 520.26 391.56 520.49 391.64 520.72 391.72 520.92 391.86 521.12 391.99 521.28 392.17 521.44 392.34 521.56 392.56 521.68 392.77 521.74 393.00 521.80 393.23 521.81 393.47 521.81 393.71 521.76 393.95 521.70 394.19 521.60 394.40 521.49 394.62 521.33 394.80 521.17 394.98 520.98 395.12 520.78 395.26 520.56 395.35 520.34 395.44 520.10 395.48 519.86 395.51 519.13 395.52 518.41 395.54 517.38 395.44 516.34 395.35 515.05 395.92 513.75 396.49 512.52 396.62 511.29 396.74 510.02 397.05 508.75 397.35 507.05 397.91 505.34 398.47 503.64 398.88 501.93 399.29 500.64 399.70 499.35 400.10 498.07 400.27 496.80 400.45 494.54 400.84 492.28 401.24 490.75 401.59 489.22 401.94 487.90 402.07 486.59 402.21 484.77 402.64 482.95 403.07 481.82 403.37 480.68 403.67 479.23 403.67 477.78 403.67 475.98 403.67 474.18 403.67 472.45 403.66 470.72 403.65 469.33 403.56 467.94 403.47 466.98 403.11 466.02 402.75 464.45 402.74 462.88 402.72 461.71 402.58 460.54 402.44 459.45 401.87 458.36 401.31 457.30 401.13 456.25 400.95 455.01 400.94 453.77 400.93 452.52 400.89 451.27 400.85 450.25 400.77 449.22 400.69 447.16 400.14 445.09 399.59 444.03 399.33 442.98 399.08 441.07 398.92 439.17 398.76 438.16 398.51 437.15 398.27 435.90 396.80 434.64 395.33 434.65 395.32 Z" data-drauu_index="0"></path>
</svg>